<svg width="18" height="24" viewBox="0 0 18 24" fill="none" xmlns="http://www.w3.org/2000/svg">
<path fill-rule="evenodd" clip-rule="evenodd" d="M11.0472 3.31142C10.7217 3.31142 10.4096 3.44221 10.1794 3.67501C9.94926 3.90782 9.81996 4.22357 9.81996 4.5528C9.81996 5.00986 9.45364 5.38039 9.00178 5.38039C8.54991 5.38039 8.18359 5.00986 8.18359 4.5528C8.18359 3.78459 8.4853 3.04784 9.02233 2.50463C9.55937 1.96142 10.2877 1.65625 11.0472 1.65625C11.8067 1.65625 12.5351 1.96142 13.0721 2.50463C13.6092 3.04784 13.9109 3.78459 13.9109 4.5528V10.7597C13.9109 11.2168 13.5446 11.5873 13.0927 11.5873C12.6408 11.5873 12.2745 11.2168 12.2745 10.7597V4.5528C12.2745 4.22357 12.1452 3.90782 11.915 3.67501C11.6849 3.44221 11.3727 3.31142 11.0472 3.31142Z" fill="white"/>
<path fill-rule="evenodd" clip-rule="evenodd" d="M6.95348 1.65517C6.62799 1.65517 6.31583 1.78596 6.08567 2.01876C5.85551 2.25157 5.72621 2.56732 5.72621 2.89655V6.2069C5.72621 6.66396 5.35989 7.03448 4.90803 7.03448C4.45616 7.03448 4.08984 6.66396 4.08984 6.2069V2.89655C4.08984 2.12834 4.39155 1.39159 4.92858 0.84838C5.46562 0.305171 6.194 0 6.95348 0C7.71296 0 8.44134 0.305171 8.97838 0.84838C9.51541 1.39159 9.81712 2.12834 9.81712 2.89655V9.93103C9.81712 10.3881 9.4508 10.7586 8.99893 10.7586C8.54707 10.7586 8.18075 10.3881 8.18075 9.93103V2.89655C8.18075 2.56732 8.05145 2.25157 7.82129 2.01876C7.59114 1.78596 7.27897 1.65517 6.95348 1.65517Z" fill="white"/>
<path fill-rule="evenodd" clip-rule="evenodd" d="M2.86364 4.96572C2.53814 4.96572 2.22598 5.09651 1.99582 5.32931C1.76567 5.56211 1.63636 5.87786 1.63636 6.2071V14.8968C1.63636 16.8722 2.41217 18.7667 3.79312 20.1635C5.17407 21.5603 7.04704 22.345 9 22.345C10.953 22.345 12.8259 21.5603 14.2069 20.1635C15.5878 18.7667 16.3636 16.8722 16.3636 14.8968V10.7588C16.3636 10.4296 16.2343 10.1138 16.0042 9.88103C15.774 9.64823 15.4619 9.51744 15.1364 9.51744C14.8109 9.51744 14.4987 9.64823 14.2686 9.88103C14.0384 10.1138 13.9091 10.4296 13.9091 10.7588V12.8278C13.9091 13.2849 13.5428 13.6554 13.0909 13.6554C12.2229 13.6554 11.3905 14.0041 10.7767 14.625C10.163 15.2458 9.81818 16.0878 9.81818 16.9657C9.81818 17.4228 9.45187 17.7933 9 17.7933C8.54813 17.7933 8.18182 17.4228 8.18182 16.9657C8.18182 15.6488 8.69902 14.3858 9.61966 13.4546C10.3451 12.7208 11.2743 12.2403 12.2727 12.0696V10.7588C12.2727 9.99061 12.5744 9.25386 13.1115 8.71065C13.6485 8.16744 14.3769 7.86227 15.1364 7.86227C15.8958 7.86227 16.6242 8.16744 17.1613 8.71065C17.6983 9.25386 18 9.99061 18 10.7588V14.8968C18 17.3111 17.0518 19.6266 15.364 21.3339C13.6761 23.0411 11.3869 24.0002 9 24.0002C6.61305 24.0002 4.32387 23.0411 2.63604 21.3339C0.948212 19.6266 0 17.3111 0 14.8968V6.2071C0 5.43889 0.301704 4.70214 0.83874 4.15893C1.37578 3.61572 2.10415 3.31055 2.86364 3.31055C3.62312 3.31055 4.3515 3.61572 4.88853 4.15893C5.42557 4.70214 5.72727 5.43889 5.72727 6.2071V10.7588C5.72727 11.2159 5.36096 11.5864 4.90909 11.5864C4.45722 11.5864 4.09091 11.2159 4.09091 10.7588V6.2071C4.09091 5.87786 3.96161 5.56211 3.73145 5.32931C3.50129 5.09651 3.18913 4.96572 2.86364 4.96572Z" fill="white"/>
</svg>
