<?xml version="1.0" standalone="no"?>
<!DOCTYPE svg PUBLIC "-//W3C//DTD SVG 20010904//EN"
 "http://www.w3.org/TR/2001/REC-SVG-20010904/DTD/svg10.dtd">
<svg version="1.0" xmlns="http://www.w3.org/2000/svg"
 width="1280.000000pt" height="1280.000000pt" viewBox="0 0 1280.000000 1280.000000"
 preserveAspectRatio="xMidYMid meet">
<metadata>
Created by potrace 1.15, written by Peter Selinger 2001-2017
</metadata>
<g transform="translate(0.000000,1280.000000) scale(0.100000,-0.100000)"
fill="green" stroke="none">
<path d="M6095 12794 c-38 -2 -151 -11 -250 -19 -2714 -232 -4991 -2175 -5654
-4823 -77 -306 -134 -645 -168 -997 -24 -252 -24 -858 0 -1110 81 -834 282
-1553 638 -2276 933 -1892 2744 -3206 4829 -3503 340 -49 508 -60 910 -60 501
0 817 31 1280 124 2515 507 4508 2511 4999 5030 86 439 115 755 115 1240 0
403 -11 571 -60 910 -216 1510 -965 2892 -2110 3897 -1031 904 -2281 1440
-3659 1568 -162 15 -716 27 -870 19z"/>
</g>
</svg>
